<svg height="448pt" viewBox="0 0 448 448" width="448pt" xmlns="http://www.w3.org/2000/svg">
	<path d="m0 416c0 17.671875 14.328125 32 32 32s32-14.328125 32-32v-280c.027344-22.082031 17.917969-39.972656 40-40h296v-40c0-4.417969-3.582031-8-8-8h-170.230469c-6.894531.007812-13.019531-4.398438-15.203125-10.9375l-10.511718-31.589844c-1.085938-3.265625-4.140626-5.46874975-7.582032-5.472656h-164.472656c-13.253906 0-24 10.746094-24 24zm0 0" fill="gray"/>
	<path d="m287.992188 352 .007812 48h112v-48zm0 0" fill="white"/>
	<path d="m448 120c0-4.417969-3.582031-8-8-8h-336c-13.253906 0-24 10.746094-24 24v280c-.003906 11.824219-4.394531 23.226562-12.320312 32h340.320312c22.082031-.027344 39.972656-17.917969 40-40zm-32 280c0 8.835938-7.164062 16-16 16h-112c-8.835938 0-16-7.164062-16-16v-48c0-8.835938 7.164062-16 16-16h112c8.835938 0 16 7.164062 16 16zm0 0" fill="black"/>
</svg>