<?xml version="1.0" standalone="no"?>
<!DOCTYPE svg PUBLIC "-//W3C//DTD SVG 20010904//EN"
 "http://www.w3.org/TR/2001/REC-SVG-20010904/DTD/svg10.dtd">
<svg version="1.0" xmlns="http://www.w3.org/2000/svg"
 width="612.000000pt" height="612.000000pt" viewBox="0 0 612.000000 612.000000"
 preserveAspectRatio="xMidYMid meet">

<g transform="translate(0.000000,612.000000) scale(0.100000,-0.100000)"
fill="#ffffff" stroke="#000000">
<path d="M2232 6082 c-9 -10 -61 -95 -115 -190 -72 -126 -105 -173 -120 -176
-41 -9 -130 -13 -149 -8 -11 3 -60 67 -115 151 -138 213 -137 211 -155 217
-26 8 -396 -114 -407 -134 -5 -10 -5 -80 0 -167 4 -82 8 -178 8 -212 l1 -63
-67 -45 c-37 -25 -77 -45 -88 -45 -11 0 -107 39 -213 86 l-194 87 -23 -19
c-42 -33 -255 -295 -255 -312 1 -9 52 -89 115 -177 63 -88 118 -170 121 -183
6 -21 -41 -144 -68 -179 -11 -14 -61 -24 -272 -55 -87 -13 -165 -28 -173 -33
-17 -12 -68 -362 -59 -399 5 -19 36 -35 188 -96 101 -40 192 -80 202 -90 21
-20 50 -177 41 -217 -3 -12 -77 -85 -165 -163 -88 -78 -160 -148 -160 -157 0
-40 154 -363 174 -363 6 0 101 18 210 39 109 21 207 36 217 34 20 -5 145 -144
161 -179 7 -16 -3 -65 -46 -212 -31 -105 -56 -200 -56 -211 0 -24 28 -45 193
-146 100 -60 132 -76 147 -69 10 5 80 68 156 139 75 72 147 134 159 139 28 11
226 -38 255 -63 11 -9 35 -73 59 -156 l40 -140 -45 -130 c-59 -169 -114 -381
-163 -630 -64 -322 -75 -415 -74 -645 0 -236 12 -311 70 -428 56 -115 121
-157 229 -150 213 13 362 243 428 658 l6 35 163 24 c89 13 176 25 193 28 l31
5 7 -118 c11 -180 22 -253 78 -499 22 -97 86 -165 191 -202 68 -23 234 -23
332 1 77 19 175 60 187 79 4 7 8 89 8 182 0 174 14 620 26 890 5 103 10 141
16 120 4 -16 33 -133 63 -260 132 -539 245 -778 402 -846 70 -31 193 -32 249
-2 140 75 263 347 399 883 l42 165 6 -135 c4 -74 10 -301 15 -505 8 -321 11
-376 27 -415 27 -67 67 -112 127 -146 52 -28 56 -29 198 -29 106 0 166 5 224
19 111 26 195 63 201 90 2 11 6 140 10 286 7 314 25 711 65 1440 34 602 36
744 15 845 -8 38 -15 71 -15 72 0 2 7 3 16 3 9 0 31 15 50 34 29 29 34 41 34
80 0 39 -6 52 -34 83 l-33 37 92 120 c51 67 134 182 184 256 l91 134 74 1 c84
0 121 19 142 71 62 152 -395 403 -547 301 -70 -47 -67 -128 7 -197 l42 -39
-100 -148 c-85 -125 -177 -251 -256 -352 -16 -19 -24 -22 -51 -16 -18 4 -53 4
-78 0 -57 -8 -123 -64 -123 -104 l0 -27 -114 -12 c-62 -7 -153 -12 -202 -12
-120 0 -157 -12 -220 -72 -62 -58 -111 -152 -149 -283 -27 -94 -143 -665 -192
-942 -15 -90 -30 -163 -33 -163 -3 0 -25 125 -48 277 -51 327 -123 725 -152
837 -41 160 -104 252 -209 303 -53 26 -64 28 -206 30 -136 2 -231 15 -251 36
-4 4 1 16 11 27 24 26 58 26 273 -5 94 -13 178 -22 186 -19 19 7 158 356 151
376 -4 9 -76 70 -160 137 -85 67 -161 129 -170 138 -14 14 -16 30 -11 102 11
136 3 128 204 221 98 45 185 90 196 100 18 17 17 23 -18 206 -27 139 -41 193
-54 204 -13 11 -76 21 -218 34 -109 10 -206 22 -216 27 -24 13 -88 133 -88
167 0 20 33 81 106 195 74 117 104 174 102 191 -4 33 -263 306 -290 306 -11 0
-105 -43 -208 -97 l-188 -96 -57 28 c-110 56 -105 43 -105 283 0 151 -3 213
-12 224 -8 9 -75 32 -158 54 -260 67 -249 65 -268 46z m-87 -807 c420 -68 768
-366 905 -773 181 -540 -68 -1135 -581 -1388 -163 -81 -319 -117 -504 -117
-303 1 -573 108 -789 313 -203 193 -325 440 -357 725 -12 109 -7 206 18 330
118 606 698 1009 1308 910z m355 -3047 c45 -73 79 -263 80 -439 l0 -96 -122
-17 c-150 -20 -168 -20 -168 -2 0 8 9 67 20 133 44 262 108 453 151 453 11 0
28 -14 39 -32z"/>
<path d="M2291 4534 c-55 -70 13 -155 90 -113 28 15 14 29 -24 22 -23 -3 -37
0 -46 11 -12 14 -8 16 38 16 46 0 51 2 51 23 0 64 -70 90 -109 41z m69 -19 c0
-9 -9 -15 -25 -15 -24 0 -32 10 -18 23 12 13 43 7 43 -8z"/>
<path d="M1531 4514 c-12 -15 -21 -35 -21 -46 0 -22 18 -60 34 -70 19 -13 73
-9 86 7 13 16 12 17 -39 19 -54 2 -51 26 3 26 44 0 46 1 46 28 0 60 -72 83
-109 36z m68 -7 c14 -17 4 -27 -26 -27 -25 0 -29 10 -11 28 15 15 23 15 37 -1z"/>
<path d="M1826 4258 c5 -7 28 -43 51 -80 49 -76 50 -68 -19 -170 -21 -31 -38
-59 -38 -62 0 -4 14 -6 30 -6 26 0 36 8 65 55 20 30 38 55 40 55 3 0 21 -25
40 -55 30 -46 40 -55 65 -55 17 0 30 2 30 5 0 2 -23 40 -50 84 l-51 79 44 69
c24 37 47 74 51 81 5 8 -2 12 -26 12 -27 0 -37 -6 -51 -32 -10 -18 -26 -44
-36 -57 l-18 -24 -34 57 c-30 50 -37 56 -67 56 -24 0 -31 -3 -26 -12z"/>
<path d="M2485 3744 c-221 -205 -463 -262 -731 -172 -114 38 -227 99 -315 170
-64 52 -71 55 -88 35 -14 -17 -3 -31 68 -86 227 -176 515 -250 743 -192 131
34 272 117 372 220 42 42 47 52 36 66 -7 8 -15 15 -19 15 -3 -1 -33 -26 -66
-56z"/>
</g>

</svg>
