<?xml version="1.0" encoding="UTF-8" standalone="no"?>
<!-- Created with Inkscape (http://www.inkscape.org/) -->

<svg
   xmlns:svg="http://www.w3.org/2000/svg"
   xmlns="http://www.w3.org/2000/svg"
   viewBox="0 0 190 125"
   version="1.1"
   id="svg8"
   >
   <style>
   .hyperlink {
      fill: white;
      stroke:white;
    }
    .hyperlink:hover {
      fill: green;
      stroke: green;
    }
   </style>
  <g id="layer1">
    <path
       style="fill:none;stroke:#ffffff;stroke-width:1.49659193;stroke-linecap:butt;stroke-linejoin:miter;stroke-miterlimit:4;stroke-dasharray:none;stroke-opacity:1"
       d="m 105.70541,98.151375 c -19.733393,5.701715 -37.729542,13.007075 -45.435972,22.272495 -7.706429,9.26541 -5.122871,20.49053 3.44392,26.74836 8.566792,6.25783 30.187573,8.17494 44.213182,6.70857 14.02562,-1.46638 29.89577,-8.69004 37.33456,-10.2491 7.4388,-1.55906 9.39883,1.2028 11.44792,3.92007 2.04909,2.71727 4.18721,5.38992 6.90446,9.48807 2.71725,4.09814 6.01353,9.62164 5.70168,7.17156 -0.31184,-2.45007 -4.23174,-12.87344 -3.11804,-23.0297 1.11371,-10.15625 7.261,-20.04537 8.46364,-29.48866 1.20265,-9.44329 -2.53924,-18.441641 -15.14512,-20.891606 -12.60587,-2.449965 -34.07684,1.648229 -53.81023,7.349941 z"
       id="path3719"
       transform="matrix(1.4913789,0,0,1.500141,-75.19278,-124.05175)" />
       <a href="https://exeami.com" target="_blank" class="hyperlink"><text x="10" y="85" transform="rotate(-15)"  font-size="smaller">Check My website here!</text></a>
  </g>
</svg>
