<?xml version="1.0" encoding="UTF-8" standalone="no"?>
<!-- Created with Inkscape (http://www.inkscape.org/) -->
<svg xmlns:dc="http://purl.org/dc/elements/1.1/" xmlns:cc="http://creativecommons.org/ns#" xmlns:rdf="http://www.w3.org/1999/02/22-rdf-syntax-ns#" xmlns:svg="http://www.w3.org/2000/svg" xmlns="http://www.w3.org/2000/svg" version="1.1" width="310" height="100" id="svg2">
  <defs id="defs4">
    <linearGradient x1="0" y1="0" x2="1" y2="0" id="linearGradient3093" gradientUnits="userSpaceOnUse" gradientTransform="matrix(558.50385,-19.503384,19.503384,558.50385,-290.73235,-73.408327)" spreadMethod="pad">
      <stop id="stop3095" style="stop-color:#ffffff;stop-opacity:1" offset="0"/>
      <stop id="stop3097" style="stop-color:#ffffff;stop-opacity:0" offset="1"/>
    </linearGradient>
    <clipPath id="clipPath3025">
      <path d="m 245.5,492.605 126,0 0,77.395 -126,0 0,-77.395 z" id="path3027"/>
    </clipPath>
    <linearGradient x1="0" y1="0" x2="1" y2="0" id="linearGradient3007" gradientUnits="userSpaceOnUse" gradientTransform="matrix(583.56,0,0,-583.56,21,20.999969)" spreadMethod="pad">
      <stop id="stop3009" style="stop-color:#f9f1d0;stop-opacity:1" offset="0"/>
      <stop id="stop3011" style="stop-color:#644487;stop-opacity:1" offset="1"/>
    </linearGradient>
  </defs>
  <metadata id="metadata7">
    <rdf:RDF>
      <cc:Work rdf:about="">
        <dc:format>image/svg+xml</dc:format>
        <dc:type rdf:resource="http://purl.org/dc/dcmitype/StillImage"/>
        <dc:title/>
      </cc:Work>
    </rdf:RDF>
  </metadata>
  <g transform="translate(0,-952.36218)" id="layer1">
    <g transform="matrix(3.7261526,0,0,-3.7261526,-992.81336,2948.8063)" id="g3021">
      <g clip-path="url(#clipPath3025)" id="g3023">
        <g transform="translate(345.1435,533.8722)" id="g3029">
          <path d="m 0,0 -2.258,0 c -1.741,0 -3.157,-1.417 -3.157,-3.157 l 0,-0.467 c -1.692,-0.117 -3.11,-0.614 -4.222,-1.48 -0.105,-0.083 -0.206,-0.169 -0.307,-0.256 -0.262,0.264 -0.547,0.504 -0.853,0.712 -0.465,0.315 -0.999,0.557 -1.584,0.723 -0.452,0.127 -0.943,0.215 -1.497,0.266 -0.459,0.041 -0.977,0.061 -1.585,0.061 l -4.775,0 c -0.929,0 -1.763,-0.404 -2.34,-1.044 -0.05,0.031 -0.1,0.064 -0.15,0.094 -0.434,0.25 -0.914,0.453 -1.429,0.606 -0.466,0.135 -0.977,0.229 -1.518,0.283 -0.435,0.041 -0.946,0.061 -1.517,0.061 l -4.294,0 c -0.329,0 -0.646,-0.049 -0.943,-0.143 -0.155,0.048 -0.313,0.086 -0.476,0.109 l 0,0.475 c 0,1.74 -1.416,3.157 -3.157,3.157 l -2.255,0 c -1.125,0 -2.11,-0.591 -2.67,-1.477 C -41.547,-0.591 -42.532,0 -43.654,0 l -2.256,0 c -1.742,0 -3.158,-1.417 -3.158,-3.157 l 0,-0.755 c -0.171,-0.083 -0.332,-0.181 -0.483,-0.29 -0.245,0.107 -0.501,0.201 -0.771,0.277 -0.452,0.127 -0.942,0.215 -1.495,0.266 -0.458,0.041 -0.977,0.061 -1.587,0.061 l -4.774,0 c -0.456,0 -0.887,-0.098 -1.279,-0.272 -0.391,0.174 -0.823,0.272 -1.278,0.272 l -2.257,0 c -0.587,0 -1.15,-0.158 -1.639,-0.457 -0.489,0.299 -1.052,0.457 -1.64,0.457 l -2.256,0 c -0.61,0 -1.203,-0.177 -1.709,-0.501 -0.505,0.324 -1.099,0.501 -1.708,0.501 l -2.257,0 c -1.74,0 -3.156,-1.415 -3.156,-3.154 l 0,-5.735 c 0,-0.996 0.075,-1.806 0.229,-2.478 0.2,-0.868 0.568,-1.658 1.141,-2.415 0.35,-0.432 0.75,-0.809 1.192,-1.118 0.443,-0.312 0.947,-0.564 1.503,-0.751 0.493,-0.164 1.033,-0.273 1.604,-0.327 0.447,-0.043 0.951,-0.065 1.542,-0.065 l 9.411,0 c 0.756,0 1.45,0.268 1.994,0.712 0.105,-0.054 0.211,-0.106 0.317,-0.152 0.373,-0.166 0.775,-0.291 1.224,-0.384 0.399,-0.083 0.84,-0.133 1.352,-0.153 0.376,-0.015 0.822,-0.023 1.366,-0.023 l 5.234,0 c 0.957,0 1.813,0.429 2.392,1.103 0.519,-0.383 1.088,-0.666 1.703,-0.841 0.624,-0.179 1.347,-0.262 2.28,-0.262 l 1.917,0 c 0.814,0 1.556,0.313 2.116,0.82 0.401,-0.241 0.827,-0.429 1.279,-0.558 0.622,-0.179 1.346,-0.262 2.279,-0.262 l 0.639,0 0,-0.198 c 0,-1.743 1.416,-3.158 3.157,-3.158 l 2.257,0 c 1.741,0 3.156,1.415 3.156,3.158 l 0,0.229 c 0.153,0.009 0.3,0.02 0.442,0.034 0.537,0.052 1.043,0.146 1.509,0.277 0.551,0.16 1.06,0.38 1.51,0.653 0.239,0.145 0.47,0.309 0.69,0.486 0.09,-0.078 0.18,-0.153 0.269,-0.224 l 0.061,-0.048 c 0.358,-0.266 0.732,-0.486 1.108,-0.65 0.376,-0.167 0.776,-0.291 1.224,-0.383 0.396,-0.083 0.839,-0.133 1.352,-0.153 0.373,-0.015 0.821,-0.023 1.365,-0.023 l 5.234,0 c 0.912,0 1.732,0.391 2.309,1.011 0.465,-0.279 0.977,-0.5 1.527,-0.654 0.443,-0.126 0.932,-0.217 1.454,-0.277 0.478,-0.054 0.995,-0.08 1.583,-0.08 l 4.436,0 c 1.74,0 3.155,1.415 3.155,3.158 l 0,13.326 C 3.155,-1.417 1.74,0 0,0" id="path3031" style="fill:#ffffff;fill-opacity:1;fill-rule:nonzero;stroke:none"/>
        </g>
        <g transform="translate(345.1435,533.1655)" id="g3033">
          <path d="m 0,0 -2.258,0 c -1.288,0 -2.331,-1.041 -2.331,-2.33 l 0,-0.12 0,-1.146 -0.028,0 c -1.856,0 -3.373,-0.446 -4.51,-1.333 -0.318,-0.246 -0.607,-0.523 -0.868,-0.827 -0.084,0.118 -0.173,0.237 -0.268,0.35 -0.004,0.006 -0.009,0.013 -0.017,0.019 -0.292,0.341 -0.62,0.636 -0.978,0.881 -0.395,0.266 -0.847,0.471 -1.348,0.614 -0.399,0.112 -0.841,0.19 -1.347,0.236 -0.438,0.041 -0.932,0.06 -1.51,0.06 l -4.775,0 c -0.949,0 -1.764,-0.568 -2.129,-1.381 -0.25,0.206 -0.509,0.388 -0.774,0.54 -0.379,0.22 -0.799,0.397 -1.246,0.528 -0.413,0.12 -0.871,0.206 -1.365,0.253 -0.42,0.041 -0.905,0.06 -1.44,0.06 l -4.294,0 c -0.335,0 -0.653,-0.072 -0.94,-0.198 -0.288,0.126 -0.604,0.198 -0.939,0.198 l -0.367,0 0,1.266 c 0,1.289 -1.043,2.33 -2.329,2.33 l -2.258,0 c -1.288,0 -2.332,-1.041 -2.332,-2.33 l 0,-1.289 c -0.1,0.013 -0.201,0.023 -0.305,0.023 l -0.367,0 0,1.146 0,0.12 c 0,1.289 -1.044,2.33 -2.331,2.33 l -2.256,0 c -1.288,0 -2.331,-1.041 -2.331,-2.33 l 0,-0.12 0,-1.212 c -0.464,-0.112 -0.872,-0.364 -1.181,-0.707 -0.338,0.2 -0.713,0.36 -1.124,0.477 -0.4,0.112 -0.838,0.19 -1.346,0.236 -0.437,0.041 -0.929,0.06 -1.512,0.06 l -4.774,0 c -0.473,0 -0.912,-0.142 -1.279,-0.384 -0.366,0.242 -0.806,0.384 -1.278,0.384 l -2.257,0 c -0.64,0 -1.219,-0.256 -1.639,-0.672 -0.422,0.416 -1.001,0.672 -1.64,0.672 l -2.256,0 c -0.674,0 -1.283,-0.287 -1.709,-0.744 -0.426,0.457 -1.033,0.744 -1.708,0.744 l -2.257,0 c -1.288,0 -2.33,-1.044 -2.33,-2.33 l 0,-0.12 0,-5.615 0,-0.12 c 0,-0.932 0.068,-1.681 0.207,-2.291 0.175,-0.757 0.494,-1.44 0.947,-2.037 0.011,-0.014 0.024,-0.031 0.034,-0.046 0.299,-0.371 0.645,-0.695 1.023,-0.961 0.383,-0.269 0.818,-0.483 1.289,-0.643 0.428,-0.141 0.905,-0.24 1.423,-0.288 0.425,-0.041 0.902,-0.061 1.462,-0.061 l 9.411,0 c 0.761,0 1.434,0.367 1.859,0.93 0.255,-0.175 0.52,-0.324 0.787,-0.441 0.32,-0.143 0.669,-0.251 1.057,-0.331 0.355,-0.074 0.754,-0.117 1.217,-0.135 0.365,-0.014 0.802,-0.023 1.333,-0.023 l 5.234,0 c 1.02,0 1.884,0.657 2.201,1.569 0.072,-0.085 0.148,-0.168 0.227,-0.248 0.028,-0.028 0.06,-0.057 0.089,-0.082 0.53,-0.479 1.139,-0.819 1.806,-1.008 0.548,-0.157 1.201,-0.231 2.052,-0.231 l 1.917,0 c 0.834,0 1.565,0.441 1.976,1.101 0.495,-0.406 1.049,-0.7 1.647,-0.87 0.547,-0.157 1.199,-0.231 2.051,-0.231 l 1.465,0 0,-0.906 0,-0.118 c 0,-1.288 1.039,-2.334 2.331,-2.334 l 2.257,0 c 1.285,0 2.33,1.046 2.33,2.334 l 0,0.118 0,0.907 c 0.44,0.008 0.83,0.027 1.187,0.059 0.486,0.048 0.943,0.131 1.361,0.249 0.475,0.138 0.918,0.329 1.311,0.568 0.379,0.229 0.739,0.512 1.075,0.845 0.024,0.025 0.047,0.053 0.072,0.077 0.251,-0.295 0.515,-0.538 0.767,-0.732 0.01,-0.007 0.019,-0.014 0.027,-0.021 0.304,-0.226 0.623,-0.416 0.949,-0.557 0.321,-0.143 0.668,-0.251 1.059,-0.331 0.353,-0.074 0.753,-0.117 1.215,-0.135 0.364,-0.014 0.802,-0.023 1.333,-0.023 l 5.234,0 c 0.929,0 1.729,0.546 2.103,1.332 0.192,-0.151 0.387,-0.291 0.586,-0.414 0.414,-0.255 0.874,-0.454 1.371,-0.592 0.4,-0.114 0.849,-0.197 1.323,-0.249 0.442,-0.051 0.932,-0.077 1.49,-0.077 l 4.436,0 c 1.288,0 2.329,1.044 2.329,2.332 l 0,0.119 0,13.207 0,0.12 C 2.329,-1.041 1.288,0 0,0" id="path3035" style="fill:#f89c34;fill-opacity:1;fill-rule:nonzero;stroke:none"/>
        </g>
        <g transform="translate(276.6688,527.2399)" id="g3037">
          <path d="m 0,0 2.258,0 0,-7.951 3.277,0 0,7.951 2.257,0 0,-9.729 -9.41,0 c -0.48,0 -0.893,0.015 -1.239,0.049 -0.346,0.034 -0.649,0.094 -0.909,0.18 -0.259,0.086 -0.489,0.2 -0.689,0.34 -0.2,0.14 -0.38,0.31 -0.54,0.509 -0.252,0.333 -0.429,0.715 -0.529,1.149 -0.1,0.433 -0.149,1.022 -0.149,1.768 l 0,5.734 2.258,0 0,-5.674 c 0,-0.28 10e-4,-0.513 0.009,-0.699 0.006,-0.188 0.023,-0.347 0.05,-0.48 0.026,-0.134 0.06,-0.246 0.099,-0.34 0.04,-0.092 0.094,-0.179 0.16,-0.26 0.146,-0.186 0.341,-0.315 0.58,-0.389 0.24,-0.073 0.572,-0.109 0.999,-0.109 L 0,-7.951 0,0 z" id="path3039" style="fill:#ffffff;fill-opacity:1;fill-rule:nonzero;stroke:none"/>
        </g>
        <g transform="translate(293.6915,523.4441)" id="g3041">
          <path d="m 0,0 c 0,0.426 -0.017,0.732 -0.05,0.918 -0.034,0.188 -0.11,0.366 -0.23,0.54 -0.148,0.212 -0.349,0.36 -0.609,0.44 -0.26,0.08 -0.67,0.12 -1.229,0.12 l -4.555,0 0,1.778 4.775,0 C -1.393,3.796 -0.96,3.779 -0.6,3.745 -0.24,3.713 0.069,3.659 0.329,3.585 0.589,3.513 0.811,3.413 0.999,3.287 1.184,3.161 1.358,3.004 1.518,2.816 1.798,2.484 1.99,2.112 2.098,1.698 2.204,1.284 2.258,0.692 2.258,-0.08 l 0,-5.854 -5.236,0 c -0.492,0 -0.905,0.007 -1.238,0.02 -0.333,0.013 -0.613,0.042 -0.839,0.09 -0.226,0.046 -0.423,0.106 -0.589,0.179 -0.167,0.073 -0.33,0.17 -0.49,0.29 -0.706,0.547 -1.059,1.325 -1.059,2.337 0,0.626 0.137,1.18 0.409,1.658 0.274,0.48 0.643,0.826 1.11,1.04 C -5.235,-0.108 -4.469,0 -3.377,0 L 0,0 z m -3.191,-1.778 c -0.306,0 -0.531,-0.008 -0.671,-0.021 -0.141,-0.013 -0.271,-0.047 -0.391,-0.099 -0.429,-0.174 -0.642,-0.54 -0.642,-1.1 0,-0.426 0.13,-0.726 0.391,-0.899 0.261,-0.173 0.699,-0.259 1.313,-0.259 l 3.191,0 0,2.378 -3.191,0 z" id="path3043" style="fill:#ffffff;fill-opacity:1;fill-rule:nonzero;stroke:none"/>
        </g>
        <g transform="translate(299.2852,530.8361)" id="g3045">
          <path d="m 0,0 2.258,0 0,-3.596 2.696,0 0,-1.778 -2.696,0 0,-4.396 c 0,-0.387 0.019,-0.693 0.06,-0.92 0.04,-0.226 0.116,-0.406 0.229,-0.538 0.112,-0.134 0.272,-0.22 0.48,-0.26 0.206,-0.04 0.483,-0.06 0.829,-0.06 l 1.098,0 0,-1.778 -1.917,0 c -0.613,0 -1.083,0.047 -1.408,0.14 -0.328,0.093 -0.623,0.259 -0.89,0.499 -0.267,0.266 -0.456,0.592 -0.569,0.979 C 0.057,-11.322 0,-10.776 0,-10.07 l 0,4.696 -1.778,0 0,1.778 1.778,0 L 0,0 z" id="path3047" style="fill:#ffffff;fill-opacity:1;fill-rule:nonzero;stroke:none"/>
        </g>
        <g transform="translate(306.8768,530.8361)" id="g3049">
          <path d="m 0,0 2.258,0 0,-3.596 2.697,0 0,-1.778 -2.697,0 0,-4.396 c 0,-0.387 0.019,-0.693 0.06,-0.92 0.04,-0.226 0.116,-0.406 0.229,-0.538 0.114,-0.134 0.273,-0.22 0.48,-0.26 0.206,-0.04 0.483,-0.06 0.829,-0.06 l 1.099,0 0,-1.778 -1.919,0 c -0.612,0 -1.081,0.047 -1.407,0.14 -0.328,0.093 -0.623,0.259 -0.889,0.499 -0.268,0.266 -0.457,0.592 -0.57,0.979 C 0.057,-11.322 0,-10.776 0,-10.07 l 0,4.696 -1.778,0 0,1.778 1.778,0 L 0,0 z" id="path3051" style="fill:#ffffff;fill-opacity:1;fill-rule:nonzero;stroke:none"/>
        </g>
        <g transform="translate(318.0043,527.2399)" id="g3053">
          <path d="m 0,0 c 0.466,0 0.872,-0.017 1.219,-0.049 0.346,-0.034 0.656,-0.091 0.93,-0.171 0.272,-0.08 0.518,-0.183 0.738,-0.311 0.22,-0.126 0.437,-0.289 0.65,-0.489 0.945,-0.866 1.418,-2.164 1.418,-3.894 0,-0.773 -0.123,-1.49 -0.369,-2.148 -0.247,-0.66 -0.583,-1.202 -1.009,-1.629 -0.2,-0.2 -0.41,-0.366 -0.629,-0.5 -0.22,-0.132 -0.47,-0.24 -0.75,-0.318 C 1.918,-9.589 1.605,-9.648 1.26,-9.68 0.913,-9.714 0.506,-9.729 0.04,-9.729 l -2.077,0 0,-3.356 -2.258,0 L -4.295,0 0,0 z m -2.037,-7.951 1.757,0 c 1.039,0 1.759,0.219 2.158,0.658 0.492,0.52 0.74,1.366 0.74,2.538 0,1.984 -0.932,2.977 -2.798,2.977 l -1.857,0 0,-6.173 z" id="path3055" style="fill:#ffffff;fill-opacity:1;fill-rule:nonzero;stroke:none"/>
        </g>
        <g transform="translate(331.6299,523.4441)" id="g3057">
          <path d="m 0,0 c 0,0.426 -0.017,0.732 -0.05,0.918 -0.033,0.188 -0.11,0.366 -0.229,0.54 -0.148,0.212 -0.35,0.36 -0.61,0.44 -0.26,0.08 -0.669,0.12 -1.229,0.12 l -4.554,0 0,1.778 4.773,0 c 0.507,0 0.939,-0.017 1.301,-0.051 C -0.24,3.713 0.07,3.659 0.329,3.585 0.589,3.513 0.812,3.413 0.999,3.287 1.185,3.161 1.359,3.004 1.518,2.816 1.798,2.484 1.991,2.112 2.098,1.698 2.203,1.284 2.258,0.692 2.258,-0.08 l 0,-5.854 -5.235,0 c -0.493,0 -0.905,0.007 -1.239,0.02 -0.333,0.013 -0.612,0.042 -0.839,0.09 -0.226,0.046 -0.423,0.106 -0.59,0.179 -0.165,0.073 -0.329,0.17 -0.489,0.29 -0.706,0.547 -1.058,1.325 -1.058,2.337 0,0.626 0.136,1.18 0.409,1.658 0.272,0.48 0.643,0.826 1.109,1.04 C -5.234,-0.108 -4.47,0 -3.377,0 L 0,0 z m -3.19,-1.778 c -0.308,0 -0.531,-0.008 -0.672,-0.021 -0.141,-0.013 -0.271,-0.047 -0.392,-0.099 -0.427,-0.174 -0.64,-0.54 -0.64,-1.1 0,-0.426 0.129,-0.726 0.391,-0.899 0.259,-0.173 0.697,-0.259 1.313,-0.259 l 3.19,0 0,2.378 -3.19,0 z" id="path3059" style="fill:#ffffff;fill-opacity:1;fill-rule:nonzero;stroke:none"/>
        </g>
        <g transform="translate(342.9378,530.8361)" id="g3061">
          <path d="m 0,0 2.258,0 0,-13.326 -4.436,0 c -0.467,0 -0.876,0.019 -1.228,0.059 -0.354,0.041 -0.674,0.101 -0.96,0.181 -0.285,0.079 -0.543,0.189 -0.769,0.329 -0.226,0.14 -0.446,0.31 -0.66,0.51 -0.426,0.412 -0.755,0.935 -0.988,1.568 -0.232,0.632 -0.35,1.349 -0.35,2.149 0,0.878 0.147,1.673 0.44,2.387 0.293,0.712 0.712,1.281 1.258,1.709 0.721,0.558 1.744,0.838 3.078,0.838 L 0,-3.596 0,0 z m 0,-5.374 -2.026,0 c -1.872,0 -2.809,-1.006 -2.809,-3.018 0,-2.104 0.883,-3.156 2.648,-3.156 l 2.187,0 0,6.174 z" id="path3063" style="fill:#ffffff;fill-opacity:1;fill-rule:nonzero;stroke:none"/>
        </g>
      </g>
    </g>
  </g>
</svg>