<?xml version="1.0" encoding="utf-8"?>
<!-- Generator: Adobe Illustrator 19.2.0, SVG Export Plug-In . SVG Version: 6.00 Build 0)  -->
<svg version="1.1" id="Layer_1" xmlns="http://www.w3.org/2000/svg" xmlns:xlink="http://www.w3.org/1999/xlink" x="0px" y="0px"
	 viewBox="0 0 1920 1080" style="enable-background:new 0 0 1920 1080;" xml:space="preserve">
<style type="text/css">
	.st0{fill:#CF9E73;}
	.st1{clip-path:url(#SVGID_2_);fill:none;stroke:#B7906C;stroke-width:2;stroke-miterlimit:10;}
	.st2{clip-path:url(#SVGID_2_);fill:none;stroke:#B7906C;stroke-width:4;stroke-miterlimit:10;}
	.st3{clip-path:url(#SVGID_2_);fill:none;stroke:#B7906C;stroke-width:3;stroke-miterlimit:10;}
	.st4{clip-path:url(#SVGID_2_);fill:none;stroke:#B7906C;stroke-width:6;stroke-miterlimit:10;}
	.st5{clip-path:url(#SVGID_2_);fill:none;stroke:#B7906C;stroke-width:5;stroke-miterlimit:10;}
	.st6{fill:#FFFFFF;}
	.st7{fill:#E6E6E6;}
	.st8{fill:#4D4D4D;}
	.st9{fill:#666666;}
	.st10{opacity:0.1;}
	.st11{fill:#F2F2F2;}
	.st12{fill:#CCCCCC;}
	.st13{fill:#FFD6B8;}
	.st14{fill:#3E639E;}
	.st15{fill:#25497C;}
	.st16{fill:#335587;}
	.st17{fill:#F15A24;}
	.st18{fill:none;stroke:#F2F2F2;stroke-width:27;stroke-linecap:round;stroke-linejoin:round;stroke-miterlimit:10;}
	.st19{fill:#754C24;}
	.st20{fill:#603813;}
	.st21{fill:#333333;}
	.st22{fill:none;stroke:#F7E277;stroke-width:6.1163;stroke-linecap:round;stroke-miterlimit:10;}
	.st23{fill:#F7E277;}
	.st24{fill:#046277;}
	.st25{fill:#0093BC;}
	.st26{fill:#026F91;}
	.st27{fill:#FBB03B;}
</style>
<rect x="1.2" y="-0.2" class="st0" width="1920" height="1080"/>
<g>
	<defs>
		<rect id="SVGID_1_" x="1.2" y="-0.2" width="1920" height="1080"/>
	</defs>
	<clipPath id="SVGID_2_">
		<use xlink:href="#SVGID_1_"  style="overflow:visible;"/>
	</clipPath>
	<path class="st1" d="M-23.3,44.1c192.9,12.2,387.6,24.3,578.6-5.2c13.7-2.1,27.9-4.4,41.2-0.4c8.2,2.5,15.6,7.3,23.8,10
		c9.5,3.1,19.6,3.3,29.6,3.4c190.7,2.1,381.4,4.2,572.1,6.4c34.5,0.4,69.3,0.8,102.8,8.7c9,2.1,17.9,4.8,27,6.1
		c12.5,1.9,25.2,1.3,37.8,0.7c192.8-8.7,385.6-17.3,578.4-26"/>
	<path class="st1" d="M-10.6,86.1c286.2-2.3,572.5-4.6,858.7-6.9c42.2-0.3,85-0.6,125.7,10.7c9.7,2.7,19.5,6,29.5,4.9
		c8.7-1,16.5-5.3,24.8-8c13.5-4.3,28-4.3,42.2-4.2c293.5,1.9,586.9,3.9,880.4,5.8"/>
	<path class="st2" d="M-32.2,135.1c73.9-1.5,147.9-3.1,221.8-4.6c13.5-0.3,27-0.6,40.5-0.8c55.1-1.1,110.2-2.3,165.4-3.8
		c153.6-4.3,305.6-12.6,458.9-18.2c65.9-2.4,131.9-2,197.9-0.2c62.9,1.7,130.8,13.2,193.3,7.1c123.6-12,253.3,0.2,378,2.8
		c30.1,0.6,60.7,1.3,89.5,10c9.2,2.7,18.2,6.3,27.8,7.4c10.7,1.2,21.4-0.7,32-2.5c60.8-10,122.6-14.1,184.2-12"/>
	<path class="st1" d="M-12.7,164.3c460.2-26.3,921.6-21.2,1382.6-16.1c195.8,2.2,391.6,4.3,587.4,6.5"/>
	<path class="st1" d="M-26.8,198.5c42.7-13.9,90.4-11.5,131.5,6.7c23.3-9,48.6-10.7,73.6-11.9c173.6-8.9,347.6-5.6,521.5-2.2
		c110.1,2.1,220.2,4.3,330.3,6.4c93.2,1.8,186.3,3.6,279.5,3c16.5-0.1,33.2-0.3,49.1-4.7c9.2-2.5,17.9-6.5,27.2-8.7
		c10.8-2.6,22.1-2.9,33.3-3.2c177.9-4.1,355.7-8.2,533.6-12.3"/>
	<path class="st1" d="M1931.4,206c-52.7-1.8-105.5-3.6-158.2-5.4c-27.9-0.9-56.6-1.8-82.6,8.1c1.3,6.8,5.9,12.5,11,17.1
		c15.3,13.7,36.3,19.5,56.8,21.1c20.5,1.6,41.1-0.6,61.6-0.8c50.2-0.4,100.2,11,150.4,7.7"/>
	<path class="st1" d="M1940,283c-95.7-0.8-191.2-18.4-280.9-51.9c-13.2-4.9-26.3-10.2-40-13c-18.7-3.9-38.1-3.2-57.2-2.6
		c-173.2,6.3-346.3,14.5-519.6,17.2c-142.3,2.2-284.6,0.9-426.9-0.5c-145-1.4-290-2.8-435-4.3c-35.5-0.3-71.1-0.7-106.6-1.6
		c-36.2-0.9-72.3-2.3-108.5-4.2"/>
	<path class="st3" d="M-32.2,933.1c73.9-1.5,147.9-3.1,221.8-4.6c13.5-0.3,27-0.6,40.5-0.8c55.1-1.1,110.2-2.3,165.4-3.8
		c153.6-4.3,305.6-12.6,458.9-18.2c65.9-2.4,131.9-2,197.9-0.2c62.9,1.7,130.8,13.2,193.3,7.1c123.6-12,253.3,0.2,378,2.8
		c30.1,0.6,60.7,1.3,89.5,10c9.2,2.7,18.2,6.3,27.8,7.4c10.7,1.2,21.4-0.7,32-2.5c60.8-10,122.6-14.1,184.2-12"/>
	<path class="st1" d="M-12.7,962.3c460.2-26.3,921.6-21.2,1382.6-16.1c195.8,2.2,391.6,4.3,587.4,6.5"/>
	<path class="st2" d="M-26.8,996.5c42.7-13.9,90.4-11.5,131.5,6.7c23.3-9,48.6-10.7,73.6-11.9c173.6-8.9,347.6-5.6,521.5-2.2
		c110.1,2.1,220.2,4.3,330.3,6.4c93.2,1.8,186.3,3.6,279.5,3c16.5-0.1,33.2-0.3,49.1-4.7c9.2-2.5,17.9-6.5,27.2-8.7
		c10.8-2.6,22.1-2.9,33.3-3.2c177.9-4.1,355.7-8.2,533.6-12.3"/>
	<path class="st1" d="M1940,1081c-95.7-0.8-191.2-18.4-280.9-51.9c-13.2-4.9-26.3-10.2-40-13c-18.7-3.9-38.1-3.2-57.2-2.5
		c-173.2,6.3-346.3,14.5-519.6,17.2c-142.3,2.2-284.6,0.9-426.9-0.5c-145-1.4-290-2.8-435-4.3c-35.5-0.3-71.1-0.7-106.6-1.6
		c-36.2-0.9-72.3-2.3-108.5-4.2"/>
	<path class="st1" d="M-8.9,272.3c29.4,7.3,59,14,88.7,20.1c1.3,4.8-2.6,9.7-7.3,11.5c-4.6,1.8-9.8,1.4-14.8,1.5
		c-25.1,0.4-49.8,13.4-74.4,8.7"/>
	<path class="st3" d="M-2.8,251.8c401.5,38.6,806.2-25.2,1209.1-7.5c27.7,1.2,129.2-8.7,143,19.5c1.4,2.8,2.2,6,4.6,7.9
		c3.7,3,9.4,1.8,13.3-0.9c4-2.7,7-6.6,11.1-9c17.7-10.7,49.1-4.2,68.6-2.9c168.7,10.8,337.8,21.5,504.6,48.8"/>
	<path class="st4" d="M-24.2,359.2c58.1,3.5,107.3-40.9,163.2-57.3c27.2-8,55.8-9.2,84-10.4c124.5-5.3,249-10.5,373.6-15.8
		c27.5-1.2,55-2.3,82.5-3.5c125.4-5.3,250.9-10.6,376.4-8.1c48.1,1,96.1,3.1,144.2,5.7c18.9,1,37.8-2.9,55.6-2.4
		c20.2,0.6,36.9,13.4,55.5,20c19.7,6.9,41,7,61.9,7c27.2,0,54.5,0,81.7,0c32.4,0,63.2-21,93.7-13c36.8,9.6,70.8,13.2,109.6,15.7
		c91.3,5.9,182.6,12.3,273.9,19.8"/>
	<path class="st1" d="M181.2,741.6c-13.6-5.6-31.1-10.6-41.5-0.2c-2.8,2.8-4.7,7.1-3.3,10.7c2.4,6,11,5.8,17,3.5
		c6-2.3,12.7-5.8,18.5-3c1.9,0.9,3.5,2.5,5.4,3.4c3.1,1.4,7,0.9,9.6-1.2c3.2-2.6,4.3-7.7,2.2-11.2s-7.3-5.1-10.9-3"/>
	<path class="st1" d="M167.9,721.7c-7.9-2.8-16.6-1.5-24.9-0.1c-7.2,1.2-14.5,2.4-21.1,5.7c-6.5,3.3-12.2,9.1-13.4,16.3
		c-1.6,9,4.2,18.1,12,22.9c7.8,4.8,17.2,6.1,26.3,6.8c12.8,0.9,25.7,0.7,38.5,0.5c9.8-0.2,20.9-0.9,27.4-8.2
		c6-6.6,6.1-17.2,1.7-24.9c-4.5-7.7-12.7-12.7-21.4-14.7c-13.1-3.1-29.6-1.4-37.2-12.5"/>
	<path class="st1" d="M93.6,717.8C81,726,68.8,740,73,754.5c3.2,11,14.6,17.3,25.2,21.8c9.5,4,19.3,7.6,29.4,9
		c18.2,2.5,37-1.9,54.9,2c11,2.4,21.8,7.9,32.9,6c14.1-2.4,23.9-17,24.5-31.3c0.6-14.3-6-28-14.4-39.6c-4-5.5-8.7-10.9-14.9-13.6
		c-10-4.4-20.3-0.7-30.6-2.2c-10.6-1.6-20.3-8.8-30.9-9.3C131.5,696.2,108,708.6,93.6,717.8z"/>
	<path class="st1" d="M65.7,717.5c-6.7,6.3-13,13.5-15.7,22.3c-5.6,18.4,6.8,38.5,23.5,48s36.8,10.7,56.1,11.2
		c19.2,0.5,39.1,0.5,56.9,7.9c15.7,6.5,31,19,47.7,15.6c18.8-3.8,27.7-25.2,31.1-44.1c3.6-20.3,4.3-41.8-3.2-61
		c-19.8-50.1-41.9-21.6-79.9-20c-20.9,0.9-39.3-13.7-60.5-11.1C101.3,688.6,80.2,703.9,65.7,717.5z"/>
	<path class="st1" d="M-14.2,742.8c44.4-10.3,75-51.8,117.5-68c32.7-12.5,69.1-8.8,103.9-4.9c26.2,2.9,53.6,6.3,74.9,21.9
		c11.6,8.5,20.6,20.1,32.6,27.9c18.4,11.8,41.4,13.1,63.2,13.8c147.2,4.4,294.3-5.8,441.4-14.2c216-12.4,432.3-20.9,648.7-25.5
		c48.7-1,97.8-1.9,145.5,7.8c22.1,4.4,43.8,11.1,66.2,13c17.7,1.5,35.5,0,53.2-1.5c14.7-1.3,29.3-2.5,44-3.8
		c49.5-4.2,99-8.5,148.5-12.7"/>
	<path class="st5" d="M-19.7,766.5c13.3-2.7,26.6-5.3,39.9-8c1.3,28.1,30,47.3,57.6,52.9s56.5,2.6,83.6,10.2
		c20.2,5.7,38.4,17.2,58.7,22.7c20.3,5.5,45.1,3.2,57.6-13.6c11.8-15.8,9.5-40.1,24.1-53.3c8.7-7.8,21.1-9.6,32.7-10.9
		c157.4-18.3,315.8-27.2,474.2-26.5c12.7,0.1,29.1,3.1,31.2,15.6c11-11.6,28.4-13.8,44.3-15.2c151.6-13.2,304.2-15,456.1-5.6
		c11.5,0.7,23.1,1.5,34.6,0c5.4-0.7,10.6-1.9,16-2.7c7-1,14.1-1.1,21.2-1.1c118.2-1.1,236.4,7.6,353.1,25.8
		c10.7,1.7,21.7,3.4,32.2,1.1c11.3-2.5,21-9.5,31.5-14.6c33.2-16.1,72.2-12.1,108.8-7.7"/>
	<path class="st3" d="M-9.6,784.4C18,811.7,49.3,840.7,88.1,843c16.8,1,33.5-3.2,50.3-2.8c57.9,1.5,117.3,56.3,166.4,25.5
		c28.6-17.9,36.7-58,64.8-76.7c34.9-23.2,83.1-3.7,123-16.6c10.2-3.3,21.5-8.6,30.9-3.5c7.4,4,11,13.5,18.8,16.5
		c7.1,2.7,14.9-0.9,22-3.7c21-8.1,44-9,66.6-9.7c88.3-2.9,176.7-5.8,265-8.7c246.7-8.1,493.8-16.2,740.3-3.1
		c98.8,5.2,199,13.8,295.8-6.7"/>
	<path class="st1" d="M-13.5,725.1c54.4-40.4,113.6-82.5,181.3-84.1c69.7-1.7,132.4,40,199.7,58.4c59.5,16.2,122.2,14.1,183.8,10.9
		c365-19.3,731.8-73.1,1094.4-27.4c29.8,3.8,60,2.3,90,0.7c59.6-3,119.2-6,178.9-9c6.6-0.3,12.8,5.6,19.2,3.8
		c6.4-1.8-3.2-13-2.5-6.4"/>
	<path class="st1" d="M-12.9,696.6c58.6-36.3,126.1-58.1,194.8-63.2c98.5-7.2,196.1,19.5,294.6,25.1c117.3,6.6,234-17,351.1-26.1
		c92.5-7.1,185.3-5.2,278.1-3.3c119,2.5,238.1,4.9,357.1,7.4c12.4,0.3,23.8,0.6,35.5-3.4c10.4-3.6,21.5-15.9,33.4-12.7
		c11.3,3.1,17.1,14.2,29.5,17c12.2,2.8,28.4-0.4,40.8-0.6c36.7-0.6,73.4-1.2,110.2-1.7c73.4-1.2,146.9-2.3,220.3-3.5"/>
	<path class="st1" d="M449.7,688.1c63.3-8.5,127-13.6,190.8-15.2c84.4-2.1,168.9,1.9,253.3,2.4c89,0.6,178.1-2.7,266.9-9.8
		c145.6-11.6,293.1-33.4,436.9-7.5c15.9,2.9,31.8,6.3,47.9,7.9c20.1,2,40.4,1.2,60.6,0.5c87.3-3,174.6-3,261.9,0.2"/>
	<path class="st1" d="M4.8,843.1c42.9,31,103.4,6.8,155.1,18.2c26.6,5.9,50.3,21.2,76.8,27.6c60.4,14.6,121-19.2,172.7-53.7
		c13.5-9,27.3-18.3,43-21.9c11.9-2.7,24.2-2,36.4-1.7c93.7,2.2,186.2-21.4,279.9-25.8c97.5-4.5,194.6,11.8,292.1,16.6
		c180.4,8.7,360.6-22.5,541.1-17.4c119.2,3.4,239.4,22.5,357,2.7c-7.4,1.2-14.8,2.4-22.3,3.5"/>
	<path class="st1" d="M452.9,835.3c278.3-19.1,557.7-21.2,836.2-6.2c7.8,0.4,16,1,22.6,5.3c3.3,2.1,6.1,5.2,9.9,6
		c9.2,1.8,14.4-9.9,21.9-15.5c6.7-5.1,15.7-5.3,24.1-5.3c173.3,0,346.6,0.1,519.9,0.1c11.2,20.9,46-10.2,66.2,2.3"/>
	<path class="st1" d="M473.9,856.1c28.9-2.2,71.5-11.5,96,7.2c4.8,3.7,10.4,8.6,16.2,6.7c5.8-1.9,7.5-9.1,10.8-14.1
		c7.2-10.8,22.3-11.9,35.2-11.9c177.1-0.1,354.1-0.1,531.2-0.2c35.4,0,71,0,105.9,6c17.1,3,34.2,7.4,51.6,7.7
		c14.9,0.3,29.7-2.5,44.5-4.3c32.8-4.1,66-3.7,99.1-3.3c162.5,1.8,325,3.6,487.5,5.5"/>
	<path class="st1" d="M-18.3,879.4c91.3-1,182.7,4.5,273.2,16.4c33.8,4.5,68.6,9.8,101.7,1.3c17.8-4.6,34.5-13,52.4-17.1
		c18.3-4.2,37.3-3.8,56.1-3.4c503.9,11.3,1008,10.4,1511.8-2.8"/>
	<path class="st1" d="M1694.3,433.5c-1.3,1.7-2.4,3.7-2.1,5.8c0.3,2.5,2.4,4.5,4.8,5.3c2.4,0.9,5,0.8,7.5,0.8
		c4.6-0.1,9.1-0.2,13.7-0.3c4.1-0.1,8.5-0.1,12,2.2c3.3,2.1,5.3,6.1,9,7.4c4.4,1.6,9.6-1.9,10.8-6.4c1.2-4.5-0.9-9.5-4.4-12.6
		s-8.1-4.8-12.7-5.7C1721.9,427.7,1702.4,423.4,1694.3,433.5z"/>
	<path class="st1" d="M1723,413.8c-10-1.4-20.3-0.2-29.6,3.6c-6.3,2.6-12.4,6.5-15.8,12.4s-3.9,13.9,0.4,19.2
		c9.6,11.9,30.7,1.4,43.5,9.8c5.3,3.4,8.7,9.8,14.8,11.3c4.4,1.1,9.1-0.8,12.8-3.5c11.5-8.3,16-24.9,10.4-38s-20.9-21.1-34.8-18.4
		c-25.8-1.5-55.6,1.7-72.6,21.1c-3.9,4.4-7.5,9.9-6.8,15.8c0.9,7.2,8.1,12.1,15.1,14c19,5.1,40.9-3.8,58.1,5.8
		c6.3,3.5,11.3,9.3,18.1,12c8.9,3.5,18.9,0.9,28.1-1.8c5.2-1.5,10.5-3.1,14.7-6.5c4.9-4,7.6-10.1,9.4-16.1
		c5.1-16.6,3.8-37.6-10.4-47.7c-8.2-5.8-18.9-6.7-28.9-7.3C1742.4,399,1730.1,414.8,1723,413.8z"/>
	<path class="st1" d="M1650.6,397.2c-16.2,7.9-23,30.5-14.1,46.1c7.7,13.5,23.7,19.8,39,22.7s31.2,3.7,45.3,10.3
		c8.9,4.2,16.6,10.5,25.4,14.9c15,7.4,33.4,8.3,48.4,1.1c24-11.5,34.9-43.2,25.6-68.2c-12.6-33.6-48.9-45-81.5-39.7
		c-13.4,2.2-26.1,8.2-39.6,9.7C1682.7,395.9,1666.2,389.5,1650.6,397.2z"/>
	<path class="st1" d="M1943.3,405.1c-55.1,7.5-109.6-12.3-163.6-25.2c-54-12.9-115.8-17.6-160.6,15.2c-13.5,9.9-24.7,22.7-39.2,31.1
		c-24.3,14.1-54,13.8-82,12.9c-112.5-3.2-225-7.5-337.6-9.4c-175.7-2.9-351.5,0.1-527.3,3.1c-49.5,0.8-98.9,1.7-148.4,2.5
		c-180.4,3.1-360.8,6.2-541.2,9.3"/>
	<path class="st1" d="M-12.8,418.4c188.3,2.4,376.7-3.9,564.4-18.6c14.8-1.2,29.8-2.4,44.4,0.5c7.3,1.4,14.3,3.8,21.6,5.3
		c11.8,2.3,23.9,2.1,35.9,1.9c123-2.5,246.1-5,369.1-7.5c62.2-1.3,124.4-2.5,186.6-3.8c30.4-0.6,60.8-1.2,91.2-1.9
		c19.8-0.4,38.9-4.9,58.2,1.3c17.5,5.6,32.2,13.9,50.7,15.9c49.8,5.2,104.7,0.8,153.2-11.6c26.1-6.7,51.3-16.4,77.3-23.3
		c98.7-25.9,202.9-8.7,303.5,8.7"/>
	<path class="st2" d="M1933,365.8c-90.4-12.3-181.6-23.9-273.1-20.6c-44.6,1.6-89.3,6.8-132.6,17.8c-21.1,5.3-41.3,12.5-61.6,19.9
		c-15.8,5.8-38.1,19.7-55.1,15.1c-11.2-3.1-18.7-13.2-27.2-21.2c-16.1-15.3-39.8-9.6-60.4-10.1c-24.9-0.6-49.7-1.1-74.6-1.5
		c-51.1-0.9-102.2-1.4-153.3-1.6c-102.2-0.5-204.4,0.4-306.6,2.5c-276.2,5.7-552.1,20.6-827.3,44.9"/>
	<path class="st2" d="M-1.3,478.2c21.6-7,44.7-7.3,67.4-7.4c109.4-0.9,218.9-1.8,328.3-2.7c45.4-0.4,90.8-0.8,136.1,2.1
		c9.6,0.6,19.2,1.4,28.8,0.7c9.4-0.6,18.7-2.6,28-4.2c44.4-7.8,89.8-7.6,134.9-7.3c196,1,392,2,587.9,3c7.6,0,15.4,0.1,22.2,3.4
		c6.1,2.9,11,8.3,17.2,10.9c9.6,4,20.5,1,30.5-1.7c106.6-28.8,222.2-23.1,325.4,16c23.1,8.8,46.2,19.3,70.9,20.5
		c24.7,1.2,52-9.8,61.4-32.7c5.9-14.3,5.2-32.9,18-41.5c7-4.7,16.1-4.8,24.5-4.6c23,0.4,46,0.7,68.9,1.1c-7.3,0.5-14.6,1-21.8,1.6"
		/>
	<path class="st1" d="M1927.6,462c-15.6-19.7-48.1-11.9-67.2,4.3c-19.1,16.3-33,39.2-55.6,50.2c-15.5,7.6-33.3,8.5-50.6,8.5
		c-70,0-140.1-14-204.8-40.9c-7.2-3-14.7-6.2-22.5-6c-7.4,0.3-14.2,3.6-21.2,5.9c-16.4,5.5-34.1,5.7-51.5,5.8
		c-394.8,2.4-789.5,4.8-1184.3,7.2c-19.9,0.1-40.2-0.7-60.1,0.4c-14.1,0.8-26.5,6.1-38.7-3.1c-6-4.5-12-10-19.5-10.3
		c-7.6-0.3-14.2,4.8-21,8.2c-24.4,12.2-57.2,4.8-83.5,5.9c-29.9,1.2-60.1,0.6-90,0.8"/>
	<path class="st5" d="M-40.9,575.2c121.2-0.6,242.5-1.1,363.7-1.7c198.2-0.9,396.6-1.9,594.4-15.4c74.7-5.1,149.3-12,224.1-17
		c39.8-2.6,74.3,3.2,112.8,7.7c37.6,4.4,74.2-18.3,111.8-7.6c12.2,3.5,23.2,10.4,35.6,13.2c29.1,6.7,66.7,2.8,96.9,4.6
		c39.2,2.4,78.4,4.8,117.7,7.1c78.4,4.8,156.9,9.5,235.3,14.3c9,0.5,18.7,1,26.5-3.6c8.2-4.8,12.6-14.1,19.1-21.1
		c12.3-13.1,33.3-16.9,49.4-9.1"/>
	<path class="st2" d="M1955.3,522.6c-11.2,9.3-27.8,3.7-42.4,2.8c-26.9-1.6-51.3,14.6-77.6,20.6c-15.9,3.6-32.5,3.4-48.8,3.1
		c-43.6-0.7-87.3-1.4-130.5-7.1c-30.5-4.1-60.6-10.7-91.2-14.3c-44.1-5.3-88.7-4.4-133.1-3.6c-54,1-107.9,2.1-161.9,3.1
		c-127.6-16.5-256.5-28.5-385.1-26.1c-97,1.8-193.5,14.4-290.4,18.5c-117.2,5-235-2.4-351.8,8.9c-72.7,7-145.8,21.3-218.3,12.4
		c-13.4-1.7-27.3-5.8-40.6-8c-2.9-0.5-6.1-1-8.8,0.2c-2.7,1.2-4.6,4.8-2.9,7.2"/>
	<path class="st3" d="M-24.9,631.6c82.8-21.8,168.1-34.3,253.7-37.3c16.9-0.6,34.7-0.6,49.4,7.6c12.9,7.2,27.2,20.6,39.7,12.7
		c7.3-4.6,9.6-15.1,17.4-18.9c10.7-5.3,21.9,5.3,33.1,9.3c17.3,6.2,37.8-3.7,54.5,4.1c5,2.4,9.3,6.2,14.5,8.2
		c6.1,2.3,12.8,1.8,19.3,1.3c88-7,175.9-14.1,263.9-21.1c182.2-14.6,363.2,1.6,545.9,0.9c9.6,0,19.5-0.1,28.4-3.6
		c6.7-2.6,13.1-7.2,20.3-7c5.5,0.1,10.4,3,15.5,5.1c13.4,5.5,28.3,5.4,42.7,5.3c190.8-1.2,381.5,3.7,572,14.9
		c4.5,0.3,10.7,2.8,9.3,7.1"/>
</g>
<g>
	<path class="st6" d="M1319.4,518.2H601c-13,0-23.6-10.7-23.6-23.9L557.3,109c0-15.7,12.5-28.3,28-28.3h751c15.5,0,28,12.7,28,28.3
		l-20.1,384.1C1344.2,506.9,1333.1,518.2,1319.4,518.2z"/>
	<path class="st7" d="M1319.4,530.4H601c-13,0-23.6-10.7-23.6-23.9l-20.1-385.3c0-15.7,12.5-28.3,28-28.3h751
		c15.5,0,28,12.7,28,28.3l-20.1,384.1C1344.2,519.1,1333.1,530.4,1319.4,530.4z"/>
	<path class="st8" d="M1309.4,520.2H611c-13.1,0-23.7-10.7-23.7-23.9l-20.1-367.9c0-15.7,12.6-28.3,28.1-28.3h731.1
		c15.5,0,28.1,12.7,28.1,28.3l-20.1,366.7C1334.3,509,1323.2,520.2,1309.4,520.2z"/>
	<polygon class="st9" points="1270,463 651.6,463 632,165.6 1289.6,165.6 	"/>
	<path class="st10" d="M1307.1,1006H614.8c-19.5,0-35.2-15.8-35.2-35.2V600.5c0-19.5,15.8-35.2,35.2-35.2h692.3
		c19.5,0,35.2,15.8,35.2,35.2v370.2C1342.3,990.2,1326.5,1006,1307.1,1006z"/>
	<path class="st7" d="M1307.1,987.8H614.8c-19.5,0-35.2-15.8-35.2-35.2V582.3c0-19.5,15.8-35.2,35.2-35.2h692.3
		c19.5,0,35.2,15.8,35.2,35.2v370.2C1342.3,972,1326.5,987.8,1307.1,987.8z"/>
	<path class="st11" d="M1307.1,971H614.8c-19.5,0-35.2-15.8-35.2-35.2V565.6c0-19.5,15.8-35.2,35.2-35.2h692.3
		c19.5,0,35.2,15.8,35.2,35.2v370.2C1342.3,955.3,1326.5,971,1307.1,971z"/>
	<rect x="739.4" y="520.2" class="st8" width="443.1" height="26.6"/>
	<path class="st7" d="M1057.1,933.6H864.8c-4.9,0-8.8-3.9-8.8-8.8V806.3c0-4.9,3.9-8.8,8.8-8.8h192.2c4.9,0,8.8,3.9,8.8,8.8v118.5
		C1065.8,929.6,1061.9,933.6,1057.1,933.6z"/>
	<path class="st12" d="M861,929.7V811.2c0-4.9,4.1-8.2,8.9-8.2h192.2c1.1,0,2.1,0.2,3,0.5c-1.3-3.2-4.5-5.5-8.1-5.5H864.8
		c-4.9,0-8.8,3.4-8.8,8.3v118.5c0,3.8,2.3,7,5.7,8.2C861.3,932,861,930.9,861,929.7z"/>
	<g>
		<path class="st8" d="M699.5,600.5h-58.9c-2.3,0-4.2-1.9-4.2-4.2v-15.6c0-2.3,1.9-4.2,4.2-4.2h58.9c2.3,0,4.2,1.9,4.2,4.2v15.6
			C703.7,598.6,701.8,600.5,699.5,600.5z"/>
		<path class="st8" d="M783.2,600.5h-58.9c-2.3,0-4.2-1.9-4.2-4.2v-15.6c0-2.3,1.9-4.2,4.2-4.2h58.9c2.3,0,4.2,1.9,4.2,4.2v15.6
			C787.4,598.6,785.5,600.5,783.2,600.5z"/>
		<path class="st8" d="M866.9,600.5H808c-2.3,0-4.2-1.9-4.2-4.2v-15.6c0-2.3,1.9-4.2,4.2-4.2h58.9c2.3,0,4.2,1.9,4.2,4.2v15.6
			C871.1,598.6,869.2,600.5,866.9,600.5z"/>
		<path class="st8" d="M950.6,600.5h-58.9c-2.3,0-4.2-1.9-4.2-4.2v-15.6c0-2.3,1.9-4.2,4.2-4.2h58.9c2.3,0,4.2,1.9,4.2,4.2v15.6
			C954.8,598.6,952.9,600.5,950.6,600.5z"/>
		<path class="st8" d="M1034.3,600.5h-58.9c-2.3,0-4.2-1.9-4.2-4.2v-15.6c0-2.3,1.9-4.2,4.2-4.2h58.9c2.3,0,4.2,1.9,4.2,4.2v15.6
			C1038.5,598.6,1036.6,600.5,1034.3,600.5z"/>
		<path class="st8" d="M1118,600.5h-58.9c-2.3,0-4.2-1.9-4.2-4.2v-15.6c0-2.3,1.9-4.2,4.2-4.2h58.9c2.3,0,4.2,1.9,4.2,4.2v15.6
			C1122.2,598.6,1120.3,600.5,1118,600.5z"/>
		<path class="st8" d="M1201.7,600.5h-58.9c-2.3,0-4.2-1.9-4.2-4.2v-15.6c0-2.3,1.9-4.2,4.2-4.2h58.9c2.3,0,4.2,1.9,4.2,4.2v15.6
			C1205.9,598.6,1204,600.5,1201.7,600.5z"/>
		<path class="st8" d="M1285.4,600.5h-58.9c-2.3,0-4.2-1.9-4.2-4.2v-15.6c0-2.3,1.9-4.2,4.2-4.2h58.9c2.3,0,4.2,1.9,4.2,4.2v15.6
			C1289.6,598.6,1287.7,600.5,1285.4,600.5z"/>
		<path class="st8" d="M727.3,657.3h-84.8c-3.4,0-6.1-2.7-6.1-6.1v-29.1c0-3.4,2.7-6.1,6.1-6.1h84.8c3.4,0,6.1,2.7,6.1,6.1v29.1
			C733.5,654.5,730.7,657.3,727.3,657.3z"/>
		<path class="st8" d="M799.4,657.3h-39.9c-2.4,0-4.3-1.9-4.3-4.3v-32.7c0-2.4,1.9-4.3,4.3-4.3h39.9c2.4,0,4.3,1.9,4.3,4.3v32.7
			C803.8,655.3,801.8,657.3,799.4,657.3z"/>
		<path class="st8" d="M862.9,657.3H823c-2.4,0-4.3-1.9-4.3-4.3v-32.7c0-2.4,1.9-4.3,4.3-4.3h39.9c2.4,0,4.3,1.9,4.3,4.3v32.7
			C867.2,655.3,865.3,657.3,862.9,657.3z"/>
		<path class="st8" d="M926.3,657.3h-39.9c-2.4,0-4.3-1.9-4.3-4.3v-32.7c0-2.4,1.9-4.3,4.3-4.3h39.9c2.4,0,4.3,1.9,4.3,4.3v32.7
			C930.6,655.3,928.7,657.3,926.3,657.3z"/>
		<path class="st8" d="M989.7,657.3h-39.9c-2.4,0-4.3-1.9-4.3-4.3v-32.7c0-2.4,1.9-4.3,4.3-4.3h39.9c2.4,0,4.3,1.9,4.3,4.3v32.7
			C994.1,655.3,992.1,657.3,989.7,657.3z"/>
		<path class="st8" d="M1053.2,657.3h-39.9c-2.4,0-4.3-1.9-4.3-4.3v-32.7c0-2.4,1.9-4.3,4.3-4.3h39.9c2.4,0,4.3,1.9,4.3,4.3v32.7
			C1057.5,655.3,1055.6,657.3,1053.2,657.3z"/>
		<path class="st8" d="M1116.6,657.3h-39.9c-2.4,0-4.3-1.9-4.3-4.3v-32.7c0-2.4,1.9-4.3,4.3-4.3h39.9c2.4,0,4.3,1.9,4.3,4.3v32.7
			C1121,655.3,1119,657.3,1116.6,657.3z"/>
		<path class="st8" d="M1180.1,657.3h-39.9c-2.4,0-4.3-1.9-4.3-4.3v-32.7c0-2.4,1.9-4.3,4.3-4.3h39.9c2.4,0,4.3,1.9,4.3,4.3v32.7
			C1184.4,655.3,1182.5,657.3,1180.1,657.3z"/>
		<path class="st8" d="M1283.7,657.3h-78.5c-3.3,0-5.9-2.7-5.9-5.9v-29.5c0-3.3,2.7-5.9,5.9-5.9h78.5c3.3,0,5.9,2.7,5.9,5.9v29.5
			C1289.6,654.6,1286.9,657.3,1283.7,657.3z"/>
		<path class="st8" d="M747.5,713.7H643.1c-3.7,0-6.8-3-6.8-6.8v-27.8c0-3.7,3-6.8,6.8-6.8h104.4c3.7,0,6.8,3,6.8,6.8v27.8
			C754.3,710.7,751.2,713.7,747.5,713.7z"/>
		<path class="st8" d="M820.7,713.7h-39.9c-2.4,0-4.3-1.9-4.3-4.3v-32.7c0-2.4,1.9-4.3,4.3-4.3h39.9c2.4,0,4.3,1.9,4.3,4.3v32.7
			C825,711.7,823.1,713.7,820.7,713.7z"/>
		<path class="st8" d="M680.6,771.3h-39.9c-2.4,0-4.3-1.9-4.3-4.3v-32.7c0-2.4,1.9-4.3,4.3-4.3h39.9c2.4,0,4.3,1.9,4.3,4.3v32.7
			C684.9,769.3,683,771.3,680.6,771.3z"/>
		<path class="st8" d="M747.9,771.3H708c-2.4,0-4.3-1.9-4.3-4.3v-32.7c0-2.4,1.9-4.3,4.3-4.3h39.9c2.4,0,4.3,1.9,4.3,4.3v32.7
			C752.2,769.3,750.3,771.3,747.9,771.3z"/>
		<path class="st8" d="M811.4,771.3h-39.9c-2.4,0-4.3-1.9-4.3-4.3v-32.7c0-2.4,1.9-4.3,4.3-4.3h39.9c2.4,0,4.3,1.9,4.3,4.3v32.7
			C815.7,769.3,813.8,771.3,811.4,771.3z"/>
		<path class="st8" d="M1108.5,771.3h-39.9c-2.4,0-4.3-1.9-4.3-4.3v-32.7c0-2.4,1.9-4.3,4.3-4.3h39.9c2.4,0,4.3,1.9,4.3,4.3v32.7
			C1112.8,769.3,1110.9,771.3,1108.5,771.3z"/>
		<path class="st8" d="M1174.4,771.3h-39.9c-2.4,0-4.3-1.9-4.3-4.3v-32.7c0-2.4,1.9-4.3,4.3-4.3h39.9c2.4,0,4.3,1.9,4.3,4.3v32.7
			C1178.8,769.3,1176.8,771.3,1174.4,771.3z"/>
		<path class="st8" d="M1283.6,771.3h-81.4c-3.3,0-6-2.7-6-6v-29.3c0-3.3,2.7-6,6-6h81.4c3.3,0,6,2.7,6,6v29.3
			C1289.6,768.6,1286.9,771.3,1283.6,771.3z"/>
		<path class="st8" d="M1036.4,771.3H839.8c-5,0-9.1-4.1-9.1-9.1v-23.1c0-5,4.1-9.1,9.1-9.1h196.6c5,0,9.1,4.1,9.1,9.1v23.1
			C1045.6,767.2,1041.5,771.3,1036.4,771.3z"/>
		<path class="st8" d="M883.1,713.7h-39.9c-2.4,0-4.3-1.9-4.3-4.3v-32.7c0-2.4,1.9-4.3,4.3-4.3h39.9c2.4,0,4.3,1.9,4.3,4.3v32.7
			C887.5,711.7,885.5,713.7,883.1,713.7z"/>
		<path class="st8" d="M945.5,713.7h-39.9c-2.4,0-4.3-1.9-4.3-4.3v-32.7c0-2.4,1.9-4.3,4.3-4.3h39.9c2.4,0,4.3,1.9,4.3,4.3v32.7
			C949.9,711.7,947.9,713.7,945.5,713.7z"/>
		<path class="st8" d="M1007.9,713.7h-39.9c-2.4,0-4.3-1.9-4.3-4.3v-32.7c0-2.4,1.9-4.3,4.3-4.3h39.9c2.4,0,4.3,1.9,4.3,4.3v32.7
			C1012.3,711.7,1010.3,713.7,1007.9,713.7z"/>
		<path class="st8" d="M1070.3,713.7h-39.9c-2.4,0-4.3-1.9-4.3-4.3v-32.7c0-2.4,1.9-4.3,4.3-4.3h39.9c2.4,0,4.3,1.9,4.3,4.3v32.7
			C1074.7,711.7,1072.7,713.7,1070.3,713.7z"/>
		<path class="st8" d="M1132.7,713.7h-39.9c-2.4,0-4.3-1.9-4.3-4.3v-32.7c0-2.4,1.9-4.3,4.3-4.3h39.9c2.4,0,4.3,1.9,4.3,4.3v32.7
			C1137.1,711.7,1135.1,713.7,1132.7,713.7z"/>
		<path class="st8" d="M1195.2,713.7h-39.9c-2.4,0-4.3-1.9-4.3-4.3v-32.7c0-2.4,1.9-4.3,4.3-4.3h39.9c2.4,0,4.3,1.9,4.3,4.3v32.7
			C1199.5,711.7,1197.6,713.7,1195.2,713.7z"/>
		<path class="st8" d="M1284.2,713.7h-65.4c-3,0-5.4-2.4-5.4-5.4v-30.5c0-3,2.4-5.4,5.4-5.4h65.4c3,0,5.4,2.4,5.4,5.4v30.5
			C1289.6,711.3,1287.2,713.7,1284.2,713.7z"/>
	</g>
	<path class="st12" d="M1025.3,971H898.4v0c0-5.4,4.4-9.8,9.8-9.8h107.2C1020.9,961.2,1025.3,965.6,1025.3,971L1025.3,971z"/>
	<circle class="st9" cx="954.8" cy="134.1" r="9.3"/>
</g>
<g>
	<path class="st10" d="M1360.2,1334.5l19.8-5.3l-95.6-354.6l3.5-1c3.1-0.8,4.9-4,4-7l-15.2-56.5c-0.8-3.1-4-4.9-7-4l-23.3,6.3
		l-10.7-39.7l-0.2,0.1l-6.9-30c0,0,25.4-23.4,20.5-66c-4.8-42.2-5.2-47.7-5.2-47.8l-2.7-45.2l-13.7-50.1c-1.5-9.9-9.2-17-17.3-15.8
		h0c-8.1,1.2-13.4,10.2-11.9,20.1l13.5,48.2l1.9,30c-1.2-0.4-2.4-0.8-3.6-1.2l-10.2-52.4l-22.5-47c-3-9.6-13.1-15-22.7-12v0
		c-9.6,3-15,13.1-12,22.7l21.9,45.2l7.1,36.3c-2.2-0.1-4.5-0.1-6.7,0l-10.2-43.7l-20.3-49.4c-3-9.6-13.1-15-22.7-12l0,0
		c-9.6,3-15,13.1-12,22.7l20.7,50.9l8.5,36.7c-2.1,0.5-4.2,1-6.1,1.5L1087,597.9c-3-9.6-13.1-15-22.7-12c-9.6,3-15,13.1-12,22.7
		l36,116.7l24.9,78.9l-18.2-14.7l-30.7-37.7c-8-7.5-20.6-7.2-28.1,0.8h0c-7.5,8-7.2,20.6,0.8,28.1l31.4,37.9l66.1,54l0.1-0.1
		l8.1,25.5l0.2-0.1l10.6,39.4l-23.8,6.4c-3.1,0.8-4.9,4-4,7l15.2,56.5c0.8,3.1,4,4.9,7,4l4.4-1.2l95.6,354.6l19.4-5.2l0,0l54.2-14.6
		l0,0l1.2-0.3l19.4-5.2l0,0l5.1-1.4l0,0L1360.2,1334.5L1360.2,1334.5z"/>
	<path class="st13" d="M1183.9,843.6l-27.3,28.9l-66.1-54l-31.4-37.9c-8-7.5-8.4-20.1-0.8-28.1v0c7.5-8,20.1-8.4,28.1-0.8l30.7,37.7
		L1183.9,843.6z"/>
	<path class="st13" d="M1145,714.6l-34.7,10.7l-36-116.7c-3-9.6,2.4-19.8,12-22.7l0,0c9.6-3,19.8,2.4,22.7,12L1145,714.6z"/>
	<path class="st13" d="M1192.5,731.3l-34.7,10.7l-15.2-65.9l-20.7-50.9c-3-9.6,2.4-19.8,12-22.7l0,0c9.6-3,19.8,2.4,22.7,12
		l20.3,49.4L1192.5,731.3z"/>
	<path class="st13" d="M1235.4,732.1l-34.7,10.7l-14.1-71.5l-21.9-45.2c-3-9.6,2.4-19.8,12-22.7l0,0c9.6-3,19.8,2.4,22.7,12l22.5,47
		L1235.4,732.1z"/>
	<path class="st13" d="M1267.6,754.3l-29.2,4.4l-4.6-72.6l-13.5-48.2c-1.5-9.9,3.9-18.9,11.9-20.1l0,0c8.1-1.2,15.8,5.9,17.3,15.8
		l13.7,50.1L1267.6,754.3z"/>
	<path class="st13" d="M1110.3,725.3l54.5,172.7l92.9-24.7l-7-30.7c0,0,25.4-23.4,20.5-66s-5.2-47.8-5.2-47.8s-43.4-23.2-80.7-20.9
		S1110.3,725.3,1110.3,725.3z"/>
	<g>
		
			<rect x="1225.5" y="876.8" transform="matrix(-0.9656 0.2602 -0.2602 -0.9656 2793.6692 1862.2816)" class="st13" width="96.1" height="478.4"/>
		
			<rect x="1219.9" y="986" transform="matrix(-0.9656 0.2602 -0.2602 -0.9656 2836.3618 1963.7982)" class="st14" width="136.7" height="367.3"/>
		<path class="st14" d="M1170,1011.3l139.9-37.7c3.1-0.8,4.9-4,4-7l-15.2-56.5c-0.8-3.1-4-4.9-7-4l-139.9,37.7c-3.1,0.8-4.9,4-4,7
			l15.2,56.5C1163.8,1010.3,1167,1012.1,1170,1011.3z"/>
		
			<ellipse transform="matrix(0.9656 -0.2602 0.2602 0.9656 -211.8725 341.6117)" class="st15" cx="1184.5" cy="971.1" rx="11.3" ry="11.3"/>
		
			<rect x="1174.3" y="992" transform="matrix(-0.9656 0.2602 -0.2602 -0.9656 2702.7695 1643.1271)" class="st16" width="136.7" height="16.9"/>
		
			<rect x="1337.1" y="972.5" transform="matrix(-0.9656 0.2602 -0.2602 -0.9656 2934.0491 1923.5616)" class="st15" width="5.2" height="366.9"/>
		
			<rect x="1316.4" y="978.1" transform="matrix(-0.9656 0.2602 -0.2602 -0.9656 2894.8987 1939.8746)" class="st15" width="5.2" height="366.9"/>
		
			<rect x="1295.8" y="983.7" transform="matrix(-0.9656 0.2602 -0.2602 -0.9656 2855.7483 1956.1876)" class="st15" width="5.2" height="366.9"/>
		
			<rect x="1275.1" y="989.2" transform="matrix(-0.9656 0.2602 -0.2602 -0.9656 2816.5979 1972.5006)" class="st15" width="5.2" height="366.9"/>
		
			<rect x="1254.5" y="994.8" transform="matrix(-0.9656 0.2602 -0.2602 -0.9656 2777.4478 1988.8136)" class="st15" width="5.2" height="366.9"/>
		
			<rect x="1233.8" y="1000.4" transform="matrix(-0.9656 0.2602 -0.2602 -0.9656 2738.2974 2005.1266)" class="st15" width="5.2" height="366.9"/>
	</g>
</g>
<g>
	<path class="st10" d="M938.4,788.1L938.4,788.1c-7.5-8-20.1-8.4-28.1-0.8L879.6,825l-18.2,14.7l24.9-78.9l36-116.7
		c3-9.6-2.4-19.8-12-22.7v0c-9.6-3-19.8,2.4-22.7,12L851.7,750c-2-0.5-4.1-1-6.1-1.5l8.5-36.7l20.7-50.9c3-9.6-2.4-19.8-12-22.7
		s-19.8,2.4-22.7,12l-20.3,49.4l-10.2,43.7c-2.2-0.1-4.5-0.1-6.7,0L810,707l21.9-45.2c3-9.6-2.4-19.8-12-22.7s-19.8,2.4-22.7,12
		l-22.5,47l-10.2,52.4c-1.2,0.4-2.4,0.8-3.6,1.2l1.9-30l13.5-48.2c1.5-9.9-3.9-18.9-11.9-20.1c-8.1-1.2-15.8,5.9-17.3,15.8
		l-13.7,50.1l-2.7,45.2l0,0c0,0-0.3,5.2-5.2,47.8s20.5,66,20.5,66l-7,30.7l0,0l-10.6,39.5l-23.3-6.3c-3.1-0.8-6.2,1-7,4l-15.2,56.5
		c-0.8,3.1,1,6.2,4,7l3.5,1l-4.4,16.3l0,0l-91.2,338.3l12,3.2v0l5.1,1.4l0,0l2.7,0.7l0,0l12.9,3.5l0,0l5.1,1.4l0,0l15.6,4.2l0,0
		l5.1,1.4l0,0l14.8,4l0.8,0.2l0,0l5.1,1.4l0,0l53,14.3l95.6-354.6l4.4,1.2c3.1,0.8,6.2-1,7-4l15.2-56.5c0.8-3.1-1-6.2-4-7l-23.8-6.4
		l10.7-39.7l-37.9-10.2l37.9,10.1l8.1-25.5l0.1,0.1l66.1-54l31.4-37.9C945.6,808.7,945.9,796.1,938.4,788.1z"/>
	<path class="st13" d="M790.7,879.2l27.3,28.9l66.1-54l31.4-37.9c8-7.5,8.4-20.1,0.8-28.1l0,0c-7.5-8-20.1-8.4-28.1-0.8L857.6,825
		L790.7,879.2z"/>
	<path class="st13" d="M829.6,750.2l34.7,10.7l36-116.7c3-9.6-2.4-19.8-12-22.7h0c-9.6-3-19.8,2.4-22.7,12L829.6,750.2z"/>
	<path class="st13" d="M782.1,766.9l34.7,10.7l15.2-65.9l20.7-50.9c3-9.6-2.4-19.8-12-22.7l0,0c-9.6-3-19.8,2.4-22.7,12l-20.3,49.4
		L782.1,766.9z"/>
	<path class="st13" d="M739.2,767.7l34.7,10.7L788,707l21.9-45.2c3-9.6-2.4-19.8-12-22.7h0c-9.6-3-19.8,2.4-22.7,12l-22.5,47
		L739.2,767.7z"/>
	<path class="st13" d="M707,789.9l29.2,4.4l4.6-72.6l13.5-48.2c1.5-9.9-3.9-18.9-11.9-20.1l0,0c-8.1-1.2-15.8,5.9-17.3,15.8
		l-13.7,50.1L707,789.9z"/>
	<path class="st13" d="M864.3,760.9l-54.5,172.7l-92.9-24.7l7-30.7c0,0-25.4-23.4-20.5-66c4.9-42.6,5.2-47.8,5.2-47.8
		s43.4-23.2,80.7-20.9C826.6,745.7,864.3,760.9,864.3,760.9z"/>
	<g>
		
			<rect x="653.1" y="913" transform="matrix(0.9656 0.2602 -0.2602 0.9656 323.9069 -142.7446)" class="st13" width="96.1" height="478.4"/>
		
			<rect x="618.2" y="1022.1" transform="matrix(0.9656 0.2602 -0.2602 0.9656 337.3441 -137.0936)" class="st14" width="136.7" height="367.3"/>
		<path class="st14" d="M804.7,1047.4l-139.9-37.7c-3.1-0.8-4.9-4-4-7l15.2-56.5c0.8-3.1,4-4.9,7-4l139.9,37.7c3.1,0.8,4.9,4,4,7
			l-15.2,56.5C810.9,1046.4,807.8,1048.2,804.7,1047.4z"/>
		
			<ellipse transform="matrix(0.2602 -0.9656 0.9656 0.2602 -387.9305 1508.2643)" class="st15" cx="790.3" cy="1007.3" rx="11.3" ry="11.3"/>
		
			<rect x="663.8" y="1028.1" transform="matrix(0.9656 0.2602 -0.2602 0.9656 294.8986 -154.7765)" class="st16" width="136.7" height="16.9"/>
		
			<rect x="632.4" y="1008.7" transform="matrix(0.9656 0.2602 -0.2602 0.9656 332.0182 -124.1633)" class="st15" width="5.2" height="366.9"/>
		
			<rect x="653.1" y="1014.2" transform="matrix(0.9656 0.2602 -0.2602 0.9656 334.1774 -129.3454)" class="st15" width="5.2" height="366.9"/>
		
			<rect x="673.7" y="1019.8" transform="matrix(0.9656 0.2602 -0.2602 0.9656 336.3367 -134.5275)" class="st15" width="5.2" height="366.9"/>
		
			<rect x="694.4" y="1025.4" transform="matrix(0.9656 0.2602 -0.2602 0.9656 338.496 -139.7096)" class="st15" width="5.2" height="366.9"/>
		
			<rect x="715" y="1030.9" transform="matrix(0.9656 0.2602 -0.2602 0.9656 340.6552 -144.8917)" class="st15" width="5.2" height="366.9"/>
		
			<rect x="735.7" y="1036.5" transform="matrix(0.9656 0.2602 -0.2602 0.9656 342.8145 -150.0739)" class="st15" width="5.2" height="366.9"/>
	</g>
</g>
<g>
	<g>
		<rect x="1441.8" y="581.3" class="st6" width="389.5" height="498.4"/>
		<rect x="1502.7" y="639.1" class="st12" width="269.4" height="9.7"/>
		<rect x="1502.7" y="667.1" class="st12" width="269.4" height="9.7"/>
		<rect x="1502.7" y="695.2" class="st12" width="269.4" height="9.7"/>
		<rect x="1502.7" y="751.3" class="st17" width="118.2" height="20.3"/>
		<rect x="1502.7" y="1015.8" class="st12" width="118.2" height="9.7"/>
		<rect x="1502.7" y="805.4" class="st12" width="251.7" height="9.7"/>
		<rect x="1502.7" y="836.6" class="st12" width="218" height="9.7"/>
		<rect x="1502.7" y="867.7" class="st12" width="275.5" height="9.7"/>
		<rect x="1502.7" y="898.8" class="st12" width="242.8" height="9.7"/>
		<rect x="1502.7" y="930" class="st12" width="261.1" height="9.7"/>
		<rect x="1502.7" y="961.1" class="st12" width="185.7" height="9.7"/>
	</g>
</g>
<g>
	<circle class="st10" cx="1616.6" cy="406.4" r="118.5"/>
	<circle class="st11" cx="1616.6" cy="376.1" r="118.5"/>
	<rect x="1498.1" y="282.5" class="st11" width="237" height="101.1"/>
	<polyline class="st18" points="1724,318.5 1771.5,318.5 1771.5,389.5 1724,389.5 	"/>
	<ellipse class="st6" cx="1616.6" cy="282.4" rx="118.5" ry="99.3"/>
	<ellipse class="st19" cx="1616.6" cy="282.4" rx="88.2" ry="73.8"/>
	<path class="st20" d="M1545.8,293c0-40.8,39.5-73.8,88.2-73.8c15.6,0,30.3,3.4,43,9.4c-15.8-12.4-37-20-60.4-20
		c-48.7,0-88.2,33.1-88.2,73.8c0,27.7,18.2,51.8,45.1,64.5C1556.4,333.4,1545.8,314.2,1545.8,293z"/>
</g>
<g>
	<path class="st21" d="M178.5,903L152,903l-4.4-238.7c0-9.5,7.7-17.2,17.1-17.2h0c9.5,0,17.2,7.7,17.2,17.1L178.5,903z"/>
	<polyline class="st22" points="147.6,667.9 193,667.8 193.2,787.3 	"/>
	<path class="st10" d="M177.5,913.2h-24.9l-11.8,35.1c0,0,11.5,12.4,15.8,20.2c2.3,4.2,4.6,10.5,6.3,15.3l3.9,1.6
		c1.6-4.9,4.1-12,6.8-16.9c4.7-8.4,15.7-20.2,15.7-20.2L177.5,913.2z"/>
	<path class="st23" d="M174.2,903h-18.3l-11.8,35.1c0,0,8.1,7.6,12.4,15.3c2.3,4.2,4.6,10.5,6.3,15.3v-25.4
		c-2.1-0.8-3.7-2.9-3.7-5.3c0-3.1,2.5-5.7,5.7-5.7s5.7,2.5,5.7,5.7c0,2.4-1.5,4.5-3.7,5.3v27c1.6-4.9,4.1-12,6.8-16.9
		c4.7-8.4,12.4-15.4,12.4-15.4L174.2,903z"/>
	<rect x="143.7" y="893.9" class="st21" width="43.9" height="9.1"/>
	<polygon class="st23" points="179.1,858.9 151.2,858.9 150.7,834.6 179.5,834.6 	"/>
</g>
<g>
	<path class="st10" d="M447,995.3H304.4c-12,0-21.8-9.7-21.8-21.8V656.2c0-12,9.7-21.8,21.8-21.8H447c12,0,21.8,9.7,21.8,21.8v317.4
		C468.8,985.6,459.1,995.3,447,995.3z"/>
	<path class="st7" d="M447,978.4H304.4c-12,0-21.8-9.7-21.8-21.8V639.3c0-12,9.7-21.8,21.8-21.8H447c12,0,21.8,9.7,21.8,21.8v317.4
		C468.8,968.6,459.1,978.4,447,978.4z"/>
	<path class="st6" d="M444.9,966.5H306.6c-11.5,0-20.8-9.3-20.8-20.8V636.4c0-11.5,9.3-20.8,20.8-20.8h138.4
		c11.5,0,20.8,9.3,20.8,20.8v309.3C465.7,957.2,456.4,966.5,444.9,966.5z"/>
	<rect x="293.8" y="648.9" class="st21" width="163.9" height="284.3"/>
	<path class="st12" d="M387.6,634.6h-19.6c-0.7,0-1.2-0.5-1.2-1.2l0,0c0-0.7,0.5-1.2,1.2-1.2h19.6c0.7,0,1.2,0.5,1.2,1.2l0,0
		C388.9,634.1,388.3,634.6,387.6,634.6z"/>
	<circle class="st12" cx="409.7" cy="633.4" r="3.5"/>
	<circle class="st12" cx="357.3" cy="633.4" r="1.9"/>
	<circle class="st12" cx="350" cy="633.4" r="1.9"/>
	<path class="st12" d="M385.4,956.2H363c-3.3,0-5.9-2.6-5.9-5.9l0,0c0-3.3,2.6-5.9,5.9-5.9h22.5c3.3,0,5.9,2.6,5.9,5.9l0,0
		C391.4,953.5,388.7,956.2,385.4,956.2z"/>
</g>
<g>
	<path class="st10" d="M444.5,565.7l-325.7-0.5c-8.9,0-16.2-7.3-16.1-16.2l0.6-413.3l359.4,0.5l-0.6,411.9
		C462.1,557.8,454.2,565.7,444.5,565.7z"/>
	<path class="st24" d="M444.5,547.9l-325.7-0.5c-8.9,0-16.2-7.3-16.1-16.2l0.6-413.3l359.4,0.5l-0.6,411.9
		C462.1,540.1,454.2,547.9,444.5,547.9z"/>
	<path class="st11" d="M448.5,530.5L122.3,530l0-34.2l339.8,0.5l0,20.6C462.1,524.5,456,530.5,448.5,530.5z"/>
	<path class="st25" d="M444.6,513.4l-341.9-0.5l0.6-411.4c0-9.9,8.1-18,18-18L445.2,84c9.7,0,17.5,7.9,17.5,17.6l-0.6,394.4
		C462.1,505.6,454.2,513.4,444.6,513.4z"/>
	<path class="st26" d="M154.1,513l-51.5-0.1l0.6-413.3c0-8.9,7.3-16.2,16.2-16.1l35.3,0.1L154.1,513z"/>
	<path class="st26" d="M380,258.6l-157.5-0.2c-7.2,0-13.1-5.9-13.1-13.1l0.1-84.7c0-7.2,5.9-13.1,13.1-13.1l157.5,0.2
		c7.2,0,13.1,5.9,13.1,13.1l-0.1,84.7C393.1,252.8,387.3,258.7,380,258.6z"/>
	
		<rect x="216" y="386.3" transform="matrix(1 1.445884e-03 -1.445884e-03 1 0.5651 -0.4349)" class="st26" width="170.1" height="8.6"/>
	
		<rect x="216" y="411.2" transform="matrix(1 1.445884e-03 -1.445884e-03 1 0.601 -0.4348)" class="st26" width="170.1" height="8.6"/>
	
		<rect x="216" y="436" transform="matrix(1 1.445884e-03 -1.445884e-03 1 0.637 -0.4348)" class="st26" width="170.1" height="8.6"/>
	
		<rect x="216" y="460.9" transform="matrix(1 1.445884e-03 -1.445884e-03 1 0.6729 -0.4347)" class="st26" width="170.1" height="8.6"/>
	
		<rect x="102.6" y="512.9" transform="matrix(1 1.445780e-03 -1.445780e-03 1 0.7542 -0.1621)" class="st26" width="19.7" height="17.2"/>
	
		<rect x="462.6" y="113.9" transform="matrix(1 1.445780e-03 -1.445780e-03 1 0.2121 -0.6845)" class="st27" width="21.9" height="64.9"/>
</g>
</svg>
